<?xml version="1.0" encoding="UTF-8"?>
<svg version="1.1" xmlns="http://www.w3.org/2000/svg" width="1024" height="1024">
<path d="M0 0 C1.95786307 -0.00231014 3.91572528 -0.00549035 5.8735857 -0.00945449 C11.20253637 -0.0177351 16.5314146 -0.01370815 21.86036539 -0.00748205 C27.62732315 -0.00293075 33.39426902 -0.00995453 39.16122437 -0.01544189 C50.43854068 -0.02430909 61.71583028 -0.02242583 72.99314761 -0.01661661 C82.16304667 -0.01208958 91.33293828 -0.01149172 100.50283813 -0.01366425 C101.81072353 -0.01397071 103.11860893 -0.01427718 104.46612722 -0.01459293 C107.12353444 -0.01523242 109.78094167 -0.01588084 112.43834889 -0.01653811 C136.61558258 -0.02227178 160.79280281 -0.0163449 184.9700342 -0.00585292 C207.00599086 0.00363715 229.0419244 0.00278785 251.07788086 -0.0067749 C275.87809833 -0.01750145 300.67830284 -0.02168433 325.4785223 -0.01555037 C328.12584877 -0.01491331 330.77317524 -0.01428457 333.42050171 -0.01366425 C334.72284738 -0.01335569 336.02519305 -0.01304714 337.36700374 -0.01272924 C346.51995106 -0.01100644 355.67289014 -0.01390845 364.82583618 -0.01862335 C375.98868913 -0.02424751 387.15151397 -0.02268352 398.31436372 -0.01206186 C404.00368308 -0.00682579 409.69295567 -0.00471303 415.38227463 -0.01136017 C420.60072353 -0.0173647 425.81908275 -0.01397099 431.03752363 -0.00340506 C432.91481609 -0.00118999 434.79211628 -0.00226416 436.66940367 -0.00715664 C452.02578548 -0.04407515 467.36196149 0.67703832 482.33666992 4.37896729 C483.63447388 4.69656006 483.63447388 4.69656006 484.95849609 5.02056885 C510.96166158 11.72103117 532.560145 24.96296736 551.96166992 43.25396729 C552.68612305 43.91396729 553.41057617 44.57396729 554.15698242 45.25396729 C581.83287747 71.44191099 595.50445544 109.4366637 597.07205057 146.89129806 C597.24259719 153.58485988 597.21307882 160.27831331 597.1887207 166.97344971 C597.18815505 169.18312067 597.18847615 171.39279202 597.18960571 173.60246277 C597.19017422 179.53919864 597.17850221 185.47585195 597.1644578 191.41256881 C597.15186575 197.63983336 597.15077331 203.86710029 597.14840698 210.09437561 C597.14221693 221.85894523 597.12583995 233.62347722 597.105708 245.38803035 C597.08985723 254.79019927 597.07895158 264.1923642 597.0715332 273.59454346 C597.07074503 274.59068635 597.07074503 274.59068635 597.06994094 275.60695335 C597.06733046 278.9392432 597.06480767 282.27153312 597.06231713 285.60382307 C597.04147126 313.15389674 597.00482632 340.7039189 596.96166992 368.25396729 C580.46166992 368.25396729 563.96166992 368.25396729 546.96166992 368.25396729 C546.95232422 361.3505542 546.94297852 354.44714111 546.93334961 347.33453369 C546.90056519 325.18598608 546.84822655 303.03751567 546.78374897 280.88903878 C546.77373284 277.44232266 546.76388848 273.99560607 546.75415039 270.54888916 C546.75220902 269.86277874 546.75026764 269.17666831 546.74826744 268.46976666 C546.71733979 257.39507201 546.7002927 246.32039802 546.6884757 235.24566837 C546.67601604 223.86177167 546.64811396 212.47800702 546.60705686 201.09417284 C546.58450682 194.70853415 546.56875537 188.32304852 546.56978607 181.93736649 C546.5705365 175.91431568 546.55243269 169.89160238 546.52050209 163.86863899 C546.51205515 161.67023701 546.51021729 159.47179695 546.51586723 157.273386 C546.58491761 126.24844843 537.98201278 100.75114068 516.08666992 78.06646729 C503.22488823 65.55599375 487.25110602 57.58782218 469.96166992 53.25396729 C469.33912528 53.08021651 468.71658063 52.90646573 468.07517099 52.72744977 C458.99960454 50.52277733 449.70427443 50.97011866 440.42980957 50.98654175 C438.42935277 50.98280254 436.42889742 50.97819995 434.42844439 50.9728111 C428.94460724 50.96059884 423.46083118 50.9608395 417.97698355 50.96319985 C412.05718646 50.96360848 406.13740884 50.95256444 400.21762085 50.94308472 C388.62371504 50.92648277 377.02982803 50.92094956 365.43591148 50.91985996 C356.00838327 50.91893977 346.58086164 50.91481733 337.15333557 50.90845871 C334.43650199 50.90666352 331.71966839 50.90488389 329.0028348 50.90310895 C328.32735324 50.90266686 327.65187167 50.90222476 326.95592097 50.90176927 C307.96174162 50.88946491 288.96756455 50.88156771 269.97338104 50.88245583 C268.89974705 50.88250256 268.89974705 50.88250256 267.80442348 50.88255024 C264.17695212 50.88271645 260.54948077 50.88291453 256.92200941 50.88311966 C255.84143382 50.88317949 255.84143382 50.88317949 254.73902842 50.88324054 C253.2822364 50.88332141 251.82544439 50.88340501 250.36865238 50.88349132 C227.71636431 50.88471613 205.06413616 50.86971496 182.41186523 50.84234619 C156.94076217 50.81158409 131.46969849 50.79441624 105.99857569 50.79627264 C103.27922726 50.79642189 100.55987883 50.79651931 97.8405304 50.79658127 C96.83623162 50.79661623 96.83623162 50.79661623 95.81164398 50.7966519 C85.72920114 50.7967095 75.64680562 50.78610327 65.56437683 50.76991653 C54.0865693 50.75167584 42.60885998 50.74738107 31.13104421 50.76093538 C25.27970609 50.76745077 19.42855621 50.76763389 13.57723618 50.75022888 C8.21035204 50.73442972 2.84380433 50.73743146 -2.52307194 50.75479715 C-4.45444139 50.75785205 -6.38583638 50.75429232 -8.31717569 50.743077 C-38.28641134 50.58070872 -63.45436072 60.11505284 -85.22583008 81.12896729 C-97.73630362 93.99074897 -105.70447518 109.96453118 -110.03833008 127.25396729 C-110.21208086 127.87651193 -110.38583163 128.49905658 -110.56484759 129.14046621 C-112.76952004 138.21603267 -112.3221787 147.51136278 -112.30575562 156.78582764 C-112.30949482 158.78628444 -112.31409742 160.78673978 -112.31948626 162.78719282 C-112.33169852 168.27102997 -112.33145787 173.75480602 -112.32909751 179.23865366 C-112.32868889 185.15845075 -112.33973292 191.07822837 -112.34921265 196.99801636 C-112.36581459 208.59192216 -112.37134781 220.18580918 -112.3724374 231.77972573 C-112.37335759 241.20725394 -112.37748003 250.63477557 -112.38383865 260.06230164 C-112.38563384 262.77913522 -112.38741347 265.49596881 -112.38918841 268.21280241 C-112.38963051 268.88828397 -112.3900726 269.56376553 -112.39052809 270.25971623 C-112.40283245 289.25389558 -112.41072965 308.24807265 -112.40984154 327.24225616 C-112.4097948 328.31589016 -112.4097948 328.31589016 -112.40974712 329.41121372 C-112.40958091 333.03868508 -112.40938283 336.66615644 -112.40917771 340.2936278 C-112.40913782 341.01401153 -112.40909792 341.73439525 -112.40905683 342.47660879 C-112.40897595 343.9334008 -112.40889236 345.39019281 -112.40880604 346.84698483 C-112.40758124 369.4992729 -112.4225824 392.15150104 -112.44995117 414.80377197 C-112.48071327 440.27487503 -112.49788112 465.74593872 -112.49602473 491.21706152 C-112.49587548 493.93640995 -112.49577806 496.65575838 -112.49571609 499.37510681 C-112.49568113 500.37940559 -112.49568113 500.37940559 -112.49564546 501.40399322 C-112.49558786 511.48643607 -112.50619409 521.56883158 -112.52238083 531.65126038 C-112.54062153 543.1290679 -112.5449163 554.60677723 -112.53136198 566.084593 C-112.5248466 571.93593112 -112.52466347 577.78708099 -112.54206848 583.63840103 C-112.55786765 589.00528517 -112.5548659 594.37183288 -112.53750022 599.73870915 C-112.53444532 601.6700786 -112.53800505 603.60147359 -112.54922037 605.53281289 C-112.71158865 635.50204854 -103.17724452 660.66999793 -82.16333008 682.44146729 C-69.30154839 694.95194082 -53.32776618 702.92011239 -36.03833008 707.25396729 C-35.10451311 707.51459345 -35.10451311 707.51459345 -34.15183115 707.7804848 C-25.07626469 709.98515724 -15.78093459 709.53781591 -6.50646973 709.52139282 C-4.50601292 709.52513203 -2.50555758 709.52973462 -0.50510454 709.53512347 C4.9787326 709.54733573 10.46250866 709.54709508 15.9463563 709.54473472 C21.86615339 709.54432609 27.78593101 709.55537013 33.70571899 709.56484985 C45.2996248 709.5814518 56.89351182 709.58698501 68.48742837 709.58807461 C77.91495657 709.5889948 87.3424782 709.59311724 96.77000427 709.59947586 C99.48683786 709.60127105 102.20367145 709.60305068 104.92050505 709.60482562 C105.59598661 709.60526771 106.27146817 709.60570981 106.96741887 709.6061653 C125.96159822 709.61846966 144.95577529 709.62636686 163.9499588 709.62547874 C164.6657148 709.62544759 165.38147079 709.62541643 166.11891636 709.62538433 C169.74638772 709.62521812 173.37385908 709.62502004 177.00133044 709.62481491 C178.08190603 709.62475508 178.08190603 709.62475508 179.18431143 709.62469403 C180.64110344 709.62461316 182.09789545 709.62452956 183.55468746 709.62444325 C206.20697554 709.62321844 228.85920368 709.63821961 251.51147461 709.66558838 C276.98257767 709.69635048 302.45364136 709.71351833 327.92476416 709.71166193 C330.64411259 709.71151268 333.36346101 709.71141526 336.08280945 709.7113533 C336.75234196 709.71132999 337.42187448 709.71130668 338.11169586 709.71128267 C348.1941387 709.71122507 358.27653422 709.7218313 368.35896301 709.73801804 C379.83677054 709.75625873 391.31447986 709.76055351 402.79229563 709.74699919 C408.64363375 709.7404838 414.49478363 709.74030068 420.34610367 709.75770569 C425.7129878 709.77350485 431.07953551 709.77050311 436.44641179 709.75313742 C438.37778124 709.75008252 440.30917623 709.75364225 442.24051553 709.76485758 C470.27387248 709.91673759 495.76746481 701.85268295 516.24682617 681.96881104 C517.14272461 681.0729126 518.03862305 680.17701416 518.96166992 679.25396729 C519.70288086 678.51275635 520.4440918 677.77154541 521.20776367 677.00787354 C527.19349255 670.64876585 533.18399996 662.58697716 535.96166992 654.25396729 C553.78166992 654.25396729 571.60166992 654.25396729 589.96166992 654.25396729 C578.55059057 692.29089845 552.5552237 723.3806266 517.84838867 742.57818604 C491.1250474 756.75329007 462.80493442 760.58650013 432.93043518 760.50793457 C430.98550883 760.51024529 429.04058336 760.51342588 427.09565967 760.51738906 C421.80703408 760.52566185 416.51848159 760.52164636 411.2298559 760.51541662 C405.50445928 760.51086201 399.7790746 760.51789073 394.05368042 760.52337646 C382.85938368 760.53224035 371.66511385 760.53036184 360.47081608 760.52455118 C351.36722433 760.52002261 342.26364009 760.51942695 333.16004753 760.52159882 C331.86120115 760.52190528 330.56235478 760.52221175 329.22414942 760.5225275 C326.58502619 760.52316699 323.94590296 760.52381542 321.30677973 760.52447268 C297.29941667 760.53000511 273.29206771 760.52428102 249.28470695 760.51378749 C227.40968612 760.50429865 205.53468859 760.50514589 183.65966797 760.51470947 C159.03484998 760.52543948 134.41004538 760.52961689 109.78522533 760.52348495 C107.15585292 760.52284789 104.5264805 760.52221915 101.89710808 760.52159882 C100.60363115 760.52129026 99.31015422 760.52098171 97.97748103 760.52066381 C88.89258774 760.51894196 79.80770275 760.52184098 70.72281075 760.52655792 C59.64018834 760.53218597 48.55759425 760.53061005 37.47497506 760.51999643 C31.82793143 760.51476538 26.18093488 760.51263888 20.53389168 760.51929474 C15.3517695 760.52530992 10.16973747 760.52188851 4.98762333 760.51133963 C3.12580287 760.50912896 1.26397459 760.51018846 -0.59784072 760.51509121 C-16.59138909 760.55393425 -32.95608093 760.06562288 -48.53833008 756.12896729 C-49.39305908 755.91796387 -50.24778809 755.70696045 -51.12841797 755.48956299 C-86.01490425 746.41862892 -118.55310396 723.81731073 -138.03833008 693.25396729 C-138.74602539 692.16857666 -139.4537207 691.08318604 -140.18286133 689.96490479 C-151.98714163 671.4145974 -159.71160097 650.15556959 -162.03833008 628.25396729 C-162.12054772 627.50184702 -162.20276537 626.74972674 -162.28747445 625.97481495 C-163.22418795 616.32293149 -163.18091214 606.70586174 -163.17204285 597.01982117 C-163.17391339 595.07609945 -163.17621506 593.1323781 -163.17890817 591.18865734 C-163.18500252 585.87090406 -163.18489537 580.55316655 -163.18371379 575.23541057 C-163.18350919 569.49082567 -163.18903429 563.74624576 -163.19377136 558.00166321 C-163.20206566 546.75528127 -163.20482566 535.50890457 -163.20538374 524.26251983 C-163.20585951 515.11680082 -163.20791731 505.97108353 -163.21108437 496.82536507 C-163.2184563 475.09335929 -163.22460954 453.36135498 -163.22408581 431.6293478 C-163.22407023 430.9350091 -163.22405465 430.2406704 -163.2240386 429.52529113 C-163.2239555 426.00648108 -163.22385646 422.48767103 -163.22375389 418.96886098 C-163.22373395 418.27007428 -163.223714 417.57128759 -163.22369345 416.85132554 C-163.22365301 415.43820905 -163.22361122 414.02509255 -163.22356806 412.61197606 C-163.22295562 390.63740857 -163.23045764 368.66285653 -163.24414062 346.68829346 C-163.25952512 321.971247 -163.26809275 297.25421108 -163.2671774 272.5371595 C-163.26684593 259.4609428 -163.26957111 246.38474351 -163.28035545 233.30853081 C-163.28948006 222.17374402 -163.29161965 211.03898255 -163.28484603 199.90419363 C-163.28159063 194.22896694 -163.28148858 188.55378876 -163.29019928 182.87856674 C-163.29810876 177.67154847 -163.29658783 172.46461682 -163.28791515 167.25760055 C-163.28638989 165.38549322 -163.28815904 163.51337928 -163.29377522 161.64127975 C-163.33765522 145.96127855 -162.7327786 130.09909204 -158.91333008 114.81646729 C-158.5957373 113.52543091 -158.5957373 113.52543091 -158.27172852 112.20831299 C-151.54295316 86.22776369 -138.32097062 64.64662529 -120.03833008 45.25396729 C-119.37833008 44.52951416 -118.71833008 43.80506104 -118.03833008 43.05865479 C-87.06075537 10.3209906 -43.45969552 -0.11326226 0 0 Z " fill="#FFFFFF" transform="translate(295.038330078125,131.74603271484375)"/>
<path d="M0 0 C1.30730455 -0.00698988 1.30730455 -0.00698988 2.64101928 -0.01412097 C5.55182561 -0.02604052 8.46216254 -0.01668723 11.37297249 -0.00736332 C13.48480103 -0.01153756 15.59662734 -0.01701557 17.70844948 -0.02368313 C23.50452911 -0.03814455 29.30046661 -0.03389076 35.09655404 -0.02651632 C41.35025701 -0.02178871 47.60392906 -0.03429091 53.85762215 -0.04453373 C65.39853723 -0.06074096 76.93938936 -0.06316542 88.48031047 -0.05822874 C99.14353316 -0.05366981 109.80673901 -0.05427293 120.46996117 -0.06006908 C121.90085975 -0.06082595 123.33175832 -0.06158193 124.7626569 -0.06233703 C126.91895182 -0.06348224 129.07524673 -0.06463212 131.23154164 -0.06579627 C151.27635641 -0.07649982 171.32116557 -0.08122802 191.36598206 -0.07332611 C192.49916142 -0.07288035 192.49916142 -0.07288035 193.65523329 -0.07242559 C199.78985778 -0.0699767 205.92448221 -0.06736509 212.05910663 -0.06474145 C235.98668208 -0.05463956 259.91418734 -0.0629939 283.84175301 -0.086236 C310.73230797 -0.11231402 337.62282068 -0.12515508 364.51338875 -0.11804825 C367.38119641 -0.1173322 370.24900408 -0.11665781 373.11681175 -0.1160078 C374.17598109 -0.11575309 374.17598109 -0.11575309 375.25654778 -0.11549323 C385.91069669 -0.11319126 396.56480635 -0.1211624 407.21894646 -0.13429928 C419.33708088 -0.14921478 431.45509841 -0.14967382 443.57323895 -0.13222837 C449.75583928 -0.12370527 455.93826407 -0.12160103 462.12085533 -0.13687992 C467.78224746 -0.15069757 473.44331317 -0.14600111 479.10468628 -0.12664068 C481.15103185 -0.12287144 483.19740338 -0.12582919 485.24372588 -0.13625234 C508.74235373 -0.24741904 508.74235373 -0.24741904 517.86470222 7.44281673 C522.26348333 12.40336989 524.69314371 18.41302486 525.08345222 25.02875423 C524.53122148 34.00250378 520.99180942 39.90879719 514.41548347 45.83734798 C507.98520911 49.82472377 501.29306522 50.82370513 493.85440445 50.76063347 C492.5470999 50.76762335 492.5470999 50.76762335 491.21338516 50.77475443 C488.30257884 50.78667398 485.39224191 50.7773207 482.48143196 50.76799679 C480.36960342 50.77217103 478.25777711 50.77764904 476.14595497 50.7843166 C470.34987534 50.79877802 464.55393783 50.79452423 458.75785041 50.78714979 C452.50414744 50.78242218 446.25047539 50.79492438 439.9967823 50.8051672 C428.45586721 50.82137443 416.91501509 50.82379889 405.37409398 50.81886221 C394.71087129 50.81430328 384.04766544 50.8149064 373.38444328 50.82070255 C371.9535447 50.82145942 370.52264612 50.8222154 369.09174754 50.8229705 C366.93545263 50.8241157 364.77915772 50.82526558 362.62286281 50.82642974 C342.57804804 50.83713329 322.53323888 50.84186149 302.48842239 50.83395958 C301.35524303 50.83351382 301.35524303 50.83351382 300.19917116 50.83305905 C294.06454667 50.83061017 287.92992224 50.82799856 281.79529782 50.82537492 C257.86772237 50.81527303 233.94021711 50.82362737 210.01265144 50.84686947 C183.12209648 50.87294749 156.23158377 50.88578855 129.3410157 50.87868172 C126.47320804 50.87796567 123.60540037 50.87729128 120.7375927 50.87664127 C119.67842336 50.87638656 119.67842336 50.87638656 118.59785667 50.8761267 C107.94370776 50.87382472 97.2895981 50.88179587 86.63545799 50.89493275 C74.51732357 50.90984825 62.39930604 50.91030728 50.2811655 50.89286184 C44.09856517 50.88433874 37.91614038 50.8822345 31.73354912 50.89751339 C26.07215699 50.91133104 20.41109128 50.90663458 14.74971817 50.88727415 C12.7033726 50.8835049 10.65700107 50.88646266 8.61067857 50.8968858 C-14.88794928 51.00805251 -14.88794928 51.00805251 -24.01029778 43.31781673 C-28.40907888 38.35726358 -30.83873926 32.34760861 -31.22904778 25.73187923 C-30.67681703 16.75812969 -27.13740497 10.85183628 -20.56107903 4.92328548 C-14.13080466 0.9359097 -7.43866077 -0.06307166 0 0 Z " fill="#FFFFFF" transform="translate(267.07279777526855,369.61968326568604)"/>
<path d="M0 0 C1.46423615 -0.00417764 2.92846907 -0.00965751 4.39269602 -0.01631981 C8.39874888 -0.03073683 12.40459534 -0.02654147 16.41065931 -0.019153 C20.73796981 -0.01441432 25.06523611 -0.02693738 29.39253235 -0.03717041 C37.86334587 -0.05435017 46.33408518 -0.05520011 54.8049116 -0.04995751 C61.69152896 -0.04591296 68.57812443 -0.04736275 75.46474075 -0.05270576 C76.44559863 -0.05345419 77.42645651 -0.05420261 78.43703736 -0.05497371 C80.42977551 -0.05650522 82.42251366 -0.05804357 84.41525181 -0.05958868 C103.09506124 -0.0733108 121.77482877 -0.0678781 140.45463724 -0.05640347 C157.5344717 -0.04647192 174.61419781 -0.05941092 191.69401555 -0.08333766 C209.24232743 -0.107735 226.79058887 -0.11733493 244.33891737 -0.11068493 C254.18666397 -0.10719406 264.03432725 -0.10941606 273.882061 -0.12693596 C282.26540105 -0.14166588 290.64859911 -0.14228305 299.03193639 -0.12486505 C303.3067631 -0.1163591 307.58133626 -0.11419551 311.85614967 -0.1295166 C315.77449405 -0.1433859 319.69236821 -0.13857211 323.61068554 -0.11927737 C325.02311836 -0.11552388 326.43558904 -0.1184205 327.84798805 -0.12888902 C337.99325986 -0.198698 347.46107212 0.6250098 355.45205688 7.45018005 C359.85083799 12.41073321 362.28049837 18.42038818 362.67080688 25.03611755 C362.11857614 34.0098671 358.57916408 39.91616051 352.00283813 45.8447113 C343.85482376 50.89724769 335.36522826 50.8188297 326.02911377 50.77536011 C324.56487762 50.77953775 323.1006447 50.78501762 321.63641775 50.79167992 C317.63036489 50.80609694 313.62451843 50.80190158 309.61845446 50.79451311 C305.29114396 50.78977443 300.96387766 50.80229749 296.63658142 50.81253052 C288.1657679 50.82971028 279.69502859 50.83056022 271.22420217 50.82531761 C264.33758481 50.82127306 257.45098934 50.82272286 250.56437302 50.82806587 C249.58351514 50.82881429 248.60265726 50.82956272 247.59207641 50.83033382 C245.59933826 50.83186533 243.60660011 50.83340367 241.61386196 50.83494879 C222.93405253 50.84867091 204.254285 50.84323821 185.57447653 50.83176357 C168.49464207 50.82183203 151.41491596 50.83477103 134.33509822 50.85869776 C116.78678634 50.88309511 99.2385249 50.89269504 81.69019639 50.88604504 C71.8424498 50.88255417 61.99478652 50.88477617 52.14705276 50.90229607 C43.76371272 50.91702599 35.38051466 50.91764316 26.99717738 50.90022516 C22.72235067 50.89171921 18.44777751 50.88955562 14.1729641 50.90487671 C10.25461972 50.91874601 6.33674556 50.91393221 2.41842823 50.89463747 C1.00599541 50.89088398 -0.40647528 50.89378061 -1.81887428 50.90424912 C-11.96414609 50.97405811 -21.43195835 50.1503503 -29.42294312 43.32518005 C-33.82172422 38.3646269 -36.2513846 32.35497193 -36.64169312 25.73924255 C-36.08946237 16.76549301 -32.55005031 10.8591996 -25.97372437 4.9306488 C-17.82570999 -0.12188758 -9.33611449 -0.04346959 0 0 Z " fill="#FFFFFF" transform="translate(429.4854431152344,249.61231994628906)"/>
<path d="M0 0 C5.90005317 -0.05031533 11.79997518 -0.08614094 17.70019531 -0.10986328 C19.69761334 -0.11977682 21.69501744 -0.13331164 23.69238281 -0.15087891 C34.17823391 -0.24063695 44.56491215 -0.13902685 55.0078125 0.89453125 C55.81216736 0.97408051 56.61652222 1.05362976 57.44525146 1.1355896 C64.29338225 1.89232576 70.57537949 3.4515375 77 6 C78.31677734 6.52207031 78.31677734 6.52207031 79.66015625 7.0546875 C95.30597902 14.06749832 105.08992723 28.45940874 111.15625 43.953125 C126.98954543 90.73331604 116.9946039 157.42472693 96.08984375 200.88671875 C90.15087135 212.74513664 83.44622001 222.66410081 74 232 C73.27167969 232.73863281 72.54335938 233.47726562 71.79296875 234.23828125 C54.87170348 250.406095 32.44007848 255.38300178 9.703125 255.1953125 C7.73095001 255.19106766 7.73095001 255.19106766 5.71893311 255.18673706 C2.26664257 255.1791939 -1.18547278 255.15962872 -4.63769531 255.1373291 C-8.17771029 255.11666674 -11.71775428 255.10769229 -15.2578125 255.09765625 C-22.17194813 255.07637138 -29.08595863 255.04152797 -36 255 C-35.35194887 242.92860479 -33.57651336 231.02295876 -31.88891602 219.06298828 C-31.56656321 216.75723319 -31.24455097 214.45143046 -30.92285156 212.14558411 C-30.05264881 205.9162053 -29.1773414 199.68755401 -28.30080914 193.45906305 C-27.47575915 187.59254878 -26.65385405 181.7255944 -25.83167385 175.85867737 C-24.10490993 163.53827505 -22.37306388 151.21859121 -20.63954466 138.89913784 C-19.15371719 128.33896272 -17.67270226 117.77812147 -16.19506836 107.21679688 C-14.47577251 94.92820393 -12.75318453 82.64007937 -11.02559417 70.35264957 C-10.11235581 63.85666791 -9.20053912 57.36049499 -8.29236031 50.86380386 C-7.43910032 44.7613274 -6.58100258 38.65955048 -5.71916962 32.55827904 C-5.4038193 30.31999823 -5.09016746 28.08147736 -4.77834129 25.84270287 C-4.35236833 22.78640165 -3.92025447 19.73102934 -3.48658752 16.67581177 C-3.36469403 15.79069636 -3.24280054 14.90558096 -3.11721331 13.99364388 C-2.42575224 9.17506271 -1.45589869 4.64696534 0 0 Z M27 29 C21.74869088 64.67200825 16.64527973 100.36454445 11.60274696 136.0665741 C10.34261932 144.98809741 9.07865071 153.90905862 7.80974346 162.8293376 C6.90127989 169.21794267 5.99704635 175.60713782 5.09596676 181.9967885 C4.56336488 185.77274412 4.02897704 189.54842517 3.48996162 193.32347107 C2.98846152 196.83638209 2.49222192 200.34999664 1.9999752 203.86421585 C1.73417997 205.75211513 1.46292251 207.63924291 1.19146729 209.52633667 C0.37198829 215.41434448 -0.20178337 221.05497352 0 227 C17.82939255 227.49308347 35.42026648 227.44799001 49.484375 214.63671875 C73.50318817 188.6988767 79.3588383 150.81528299 83 117 C83.14465698 115.70050415 83.14465698 115.70050415 83.29223633 114.37475586 C85.70529667 90.79208687 87.05138723 61.91208021 72 42 C65.31345051 34.58190863 57.78806357 30.69682441 48 29 C46.30742755 28.92299714 44.61226001 28.89194933 42.91796875 28.90234375 C41.98662109 28.90556641 41.05527344 28.90878906 40.09570312 28.91210938 C39.13599609 28.92048828 38.17628906 28.92886719 37.1875 28.9375 C36.20845703 28.94201172 35.22941406 28.94652344 34.22070312 28.95117188 C31.81373889 28.96291316 29.40690143 28.97933581 27 29 Z " fill="#FFFFFF" transform="translate(392,495)"/>
<path d="M0 0 C10.56 0 21.12 0 32 0 C38.6 29.7 45.2 59.4 52 90 C58.29613213 77.5069846 58.29613213 77.5069846 64.19140625 64.84765625 C64.53937256 64.07091553 64.88733887 63.2941748 65.24584961 62.49389648 C65.97928285 60.85581949 66.7112218 59.21707263 67.44168091 57.57766724 C68.98532332 54.11366592 70.53713451 50.65334268 72.08836365 47.19273376 C72.88298028 45.41984127 73.67722124 43.64678034 74.47108459 41.87355042 C78.15126691 33.65410857 81.85300704 25.44455917 85.57369995 17.24337769 C86.23082579 15.79403403 86.88702096 14.34426804 87.54226685 12.89407349 C88.4439966 10.89845155 89.3485398 8.90413037 90.25390625 6.91015625 C90.76252197 5.78746338 91.2711377 4.66477051 91.79516602 3.50805664 C93 1 93 1 94 0 C96.44830426 -0.08843793 98.86820599 -0.11528752 101.31640625 -0.09765625 C102.04746078 -0.0962413 102.77851532 -0.09482635 103.53172302 -0.09336853 C105.87535632 -0.08775408 108.21889539 -0.07519922 110.5625 -0.0625 C112.14778508 -0.05748686 113.73307166 -0.05292363 115.31835938 -0.04882812 C119.2122761 -0.03777997 123.10612205 -0.02050572 127 0 C126.40094035 3.72508159 125.34387023 6.66119108 123.62641907 10.01371765 C123.12571899 10.99900955 122.62501892 11.98430145 122.10914612 12.99945068 C121.55790573 14.069151 121.00666534 15.13885132 120.4387207 16.2409668 C119.55020865 17.9841432 118.66170532 19.72732407 117.77353036 21.47067225 C116.81990141 23.34019421 115.86349371 25.20827403 114.90657997 27.07611656 C112.90979754 30.97640499 110.9270125 34.88369813 108.9473114 38.79267883 C108.26839955 40.13283652 107.58948353 41.47299211 106.91056347 42.81314564 C106.57063472 43.48418532 106.23070597 44.155225 105.88047636 44.84659922 C101.27188809 53.94187532 96.65258201 63.03149032 92.00170898 72.10522461 C88.86156086 78.23184237 85.74159434 84.36828114 82.64409703 90.51657802 C81.00579785 93.76641462 79.35765696 97.01034144 77.68453407 100.24240685 C75.81682467 103.85068001 73.9936467 107.47976515 72.1730957 111.11206055 C71.61578262 112.17163971 71.05846954 113.23121887 70.48426819 114.32290649 C67.00369454 121.38947932 66.60635576 125.55313693 69 133 C69.40690164 134.64457599 69.80475497 136.29141487 70.19392395 137.9402771 C70.63812725 139.6879061 71.08509188 141.43483494 71.53442383 143.18115234 C71.78027725 144.14535095 72.02613068 145.10954956 72.2794342 146.10296631 C73.08621203 149.26458077 73.89661796 152.42525315 74.70703125 155.5859375 C75.27536177 157.81053625 75.84344725 160.03519762 76.41130066 162.25991821 C77.90478199 168.1085892 79.40127197 173.95648603 80.89849854 179.80419922 C82.99543422 187.99646133 85.08824992 196.18977707 87.18156433 204.38296509 C88.2935663 208.7352637 89.40665894 213.08728088 90.52070618 217.4390564 C93.7216233 229.94934344 96.87906455 242.4694999 100 255 C89.11 255 78.22 255 67 255 C64.83169482 245.58370842 62.66435135 236.16720056 60.5 226.75 C60.34056664 226.05630436 60.18113327 225.36260872 60.01686859 224.647892 C54.91654968 202.45273806 49.87632343 180.24561084 45 158 C42.01865433 161.56028673 40.20220502 165.56831548 38.296875 169.76171875 C37.9421965 170.53233643 37.58751801 171.3029541 37.22209167 172.09692383 C36.06004427 174.62499614 34.90493173 177.15617001 33.75 179.6875 C32.94249202 181.44848564 32.13462677 183.20930749 31.32641602 184.9699707 C28.87725577 190.31011659 26.43783002 195.65467442 24 201 C23.27786113 202.58204453 22.55569436 204.16407633 21.83349609 205.74609375 C16.55994794 217.30239024 11.29534096 228.86286763 6.10546875 240.45703125 C5.67951416 241.40811768 5.25355957 242.3592041 4.81469727 243.33911133 C4.04852154 245.05274752 3.28451459 246.76735588 2.52319336 248.4831543 C0.10874506 253.89125494 0.10874506 253.89125494 -1 255 C-3.52094076 255.08847743 -6.01430893 255.11527301 -8.53515625 255.09765625 C-9.66503212 255.09553383 -9.66503212 255.09553383 -10.81773376 255.09336853 C-13.2326956 255.08775376 -15.64756601 255.07519883 -18.0625 255.0625 C-19.69596221 255.0574869 -21.32942586 255.05292366 -22.96289062 255.04882812 C-26.97529285 255.03862883 -30.98763353 255.01966917 -35 255 C-28.56757508 241.15710357 -21.76418186 227.52382486 -14.83208847 213.92523003 C-13.01159333 210.34893689 -11.19760564 206.76942714 -9.38674927 203.18824768 C-8.92350905 202.27218165 -8.92350905 202.27218165 -8.45091045 201.33760923 C-7.18518692 198.83426122 -5.91971754 196.3307848 -4.65430999 193.82727706 C-1.0921105 186.78075471 2.47819104 179.73858805 6.07128906 172.70776367 C8.95334289 167.0681317 11.81817691 161.42012708 14.66330898 155.76177365 C16.16146992 152.78384487 17.67014055 149.81252673 19.19504166 146.84811211 C20.88836598 143.55336817 22.55105479 140.24478949 24.20751953 136.93139648 C24.71126602 135.96861786 25.21501251 135.00583923 25.73402405 134.0138855 C28.92515557 127.5245096 29.54124736 123.04792369 28 116 C27.81670702 115.12826488 27.63341404 114.25652975 27.44456673 113.35837841 C26.79178828 110.47013272 26.07112789 107.60610776 25.33203125 104.73876953 C25.06039154 103.6610881 24.78875183 102.58340668 24.50888062 101.47306824 C23.61686662 97.94122682 22.71476432 94.41204786 21.8125 90.8828125 C21.18792986 88.41819904 20.5639975 85.95342387 19.94067383 83.48849487 C18.47033952 77.68047607 16.99365591 71.87410859 15.51381016 66.06850898 C13.83213045 59.46962533 12.15856116 52.86869366 10.48568916 46.26757264 C7.62682199 34.98704713 4.76206244 23.7080327 1.89022827 12.43080139 C1.53693954 11.04327415 1.53693954 11.04327415 1.17651367 9.62771606 C0.97225266 8.82583925 0.76799164 8.02396244 0.55754089 7.19778633 C0.3735524 6.47251684 0.1895639 5.74724735 0 5 C-0.20989059 4.26517836 -0.41978119 3.53035671 -0.6360321 2.77326775 C-0.75614151 2.18808939 -0.87625092 1.60291103 -1 1 C-0.67 0.67 -0.34 0.34 0 0 Z " fill="#FFFFFF" transform="translate(241,495)"/>
<path d="M0 0 C12.55341045 9.69555141 17.32112794 23.73636418 19.63769531 38.89086914 C24.58558032 78.61139047 18.6151707 135.58142607 -6.68359375 168.2265625 C-7.99736346 169.76432742 -9.32953575 171.28665153 -10.68359375 172.7890625 C-11.24820313 173.43488281 -11.8128125 174.08070313 -12.39453125 174.74609375 C-20.71038024 183.70612823 -33.47605063 190.18216617 -45.77368164 190.91333008 C-60.65992264 191.40522326 -75.54029718 190.78459196 -87.25 180.3125 C-102.97818855 163.59862115 -103.35768931 139.76885003 -102.96875 118.23828125 C-102.18625103 92.92001971 -98.23584699 66.69220561 -89.68359375 42.7890625 C-89.30589844 41.66757812 -88.92820312 40.54609375 -88.5390625 39.390625 C-82.39912269 22.10022594 -71.16082593 6.58821084 -54.93359375 -2.4609375 C-38.22579605 -10.06134744 -15.59137544 -10.16067164 0 0 Z M-51.49609375 31.4765625 C-70.47780528 61.39387365 -77.96087534 112.33504007 -70.68359375 146.7890625 C-68.67604046 153.20953246 -65.88925347 158.57775332 -59.71484375 161.82421875 C-52.87015896 164.60788457 -47.2149986 163.68669053 -40.51953125 160.8828125 C-28.54290622 154.40896113 -23.3984152 139.03971409 -19.56469727 126.81567383 C-16.32371165 115.70025569 -14.56756123 104.19490046 -12.68359375 92.7890625 C-12.54791992 92.00982422 -12.41224609 91.23058594 -12.27246094 90.42773438 C-10.51652155 80.1493061 -10.45772898 69.80955524 -10.37109375 59.4140625 C-10.36137543 58.72333649 -10.3516571 58.03261047 -10.34164429 57.32095337 C-10.20394698 45.78987548 -10.82269571 33.94216296 -18.68359375 24.7890625 C-23.72240978 20.67574329 -28.15648465 20.03047814 -34.62109375 20.2890625 C-42.05382528 21.50256969 -47.09160055 25.52480121 -51.49609375 31.4765625 Z " fill="#FFFFFF" transform="translate(733.68359375,562.2109375)"/>
<path d="M0 0 C9.9 0 19.8 0 30 0 C28.87510746 13.49871054 28.87510746 13.49871054 28.19639587 18.13902283 C27.96715172 19.72586128 27.96715172 19.72586128 27.73327637 21.34475708 C27.48619934 23.01669632 27.48619934 23.01669632 27.23413086 24.72241211 C26.97056541 26.53714272 26.97056541 26.53714272 26.70167542 28.38853455 C26.32287301 30.99462235 25.94282814 33.60049349 25.56074333 36.20609856 C24.95502474 40.33912432 24.35613555 44.47312272 23.75843811 48.60731506 C22.05916668 60.35458576 20.35296657 72.10083444 18.63549805 83.84545898 C17.68413971 90.3515726 16.7394646 96.85862191 15.80192286 103.36674124 C15.21134722 107.46373493 14.6128121 111.55945564 14.00808132 115.65438259 C13.54340316 118.81790863 13.09090789 121.98318203 12.63647461 125.14819336 C12.38636124 126.81709625 12.38636124 126.81709625 12.13119507 128.51971436 C10.46419516 140.30700576 8.7907738 152.79901084 16.125 162.9375 C20.69815915 166.21824461 24.93648087 167.4115873 30.55859375 166.65625 C40.60838343 164.08644077 45.16889941 158.35781841 50.32421875 149.68359375 C55.02201103 140.21741545 56.78420857 129.68044834 58.19824219 119.31518555 C58.38414413 118.01606232 58.57004608 116.71693909 58.76158142 115.37844849 C59.26453668 111.86201459 59.75464445 108.34390307 60.24222851 104.82530951 C60.75641382 101.13138472 61.2827248 97.4391874 61.80767822 93.7467804 C62.79702474 86.77498321 63.77566795 79.8017287 64.75034547 72.82786733 C65.86172993 64.87973201 66.9852329 56.93332424 68.10968924 48.98702943 C70.41982177 32.65988009 72.71334413 16.33045647 75 0 C84.9 0 94.8 0 105 0 C103.87497876 14.62527616 103.87497876 14.62527616 102.93737793 21.18006897 C102.78402143 22.26442935 102.78402143 22.26442935 102.62756681 23.37069601 C102.29147052 25.73998183 101.94949153 28.10837651 101.60742188 30.47680664 C101.36224085 32.19629969 101.11742399 33.91584471 100.87294006 35.63543701 C100.21356234 40.26550741 99.54899055 44.89481819 98.88331032 49.5239861 C98.18566055 54.38102586 97.492484 59.23870419 96.79870605 64.09629822 C95.63478258 72.24096202 94.46762101 80.38515648 93.29833984 88.52905273 C91.94660044 97.94392237 90.59928934 107.35941727 89.25447989 116.7752791 C87.82041771 126.81573928 86.38316055 136.85574019 84.94495583 146.89560771 C84.53121662 149.7853894 84.11807419 152.67525588 83.70506287 155.56514168 C83.05697343 160.09875712 82.40674541 164.63206087 81.75485039 169.16513062 C81.51588377 170.82912888 81.27762876 172.49322951 81.04013252 174.15743828 C80.71623794 176.42617085 80.38976695 178.69451799 80.06262207 180.96278381 C79.88048409 182.23272218 79.6983461 183.50266054 79.51068878 184.81108189 C79 188 79 188 78 192 C68.76 192 59.52 192 50 192 C50 186.39 50 180.78 50 175 C48.906875 176.505625 47.81375 178.01125 46.6875 179.5625 C40.5511626 187.21665937 31.84497849 193.36646283 22 195 C10.53439097 195.96046987 0.12556194 195.26961833 -9.3125 188 C-17.59336505 180.04220772 -20.70342752 169.01494393 -21.11665344 157.84741211 C-21.16767789 149.73909767 -20.57358476 141.95703606 -19.41796875 133.9375 C-19.24791824 132.70278458 -19.07786774 131.46806915 -18.90266418 130.19593811 C-18.43717886 126.8307474 -17.96328221 123.46695719 -17.48529053 120.1035347 C-16.98033948 116.53665814 -16.48599137 112.96831031 -15.99023438 109.40014648 C-15.13326578 103.24354602 -14.26887431 97.08802255 -13.39990234 90.93310547 C-12.30236884 83.15862226 -11.21460969 75.38280897 -10.13088322 67.60639 C-8.88053892 58.63447591 -7.62552301 49.6632205 -6.36835098 40.69226074 C-5.99980328 38.06109559 -5.63187713 35.42984403 -5.26400757 32.79858398 C-4.6837283 28.65054387 -4.10035014 24.50295048 -3.51459312 20.35568047 C-3.2983594 18.82163539 -3.08309314 17.2874536 -2.86884499 15.75312996 C-2.57537155 13.65282546 -2.27838713 11.55304707 -1.98046875 9.45336914 C-1.81442139 8.27343887 -1.64837402 7.09350861 -1.47729492 5.87782288 C-1 3 -1 3 0 0 Z " fill="#FFFFFF" transform="translate(789,558)"/>
<path d="M0 0 C1.29349365 0.00523682 2.5869873 0.01047363 3.91967773 0.01586914 C4.9496714 0.01799156 4.9496714 0.01799156 6.00047302 0.02015686 C8.20144949 0.0257706 10.40232557 0.03832532 12.60327148 0.05102539 C14.09220231 0.05603863 15.58113473 0.06060184 17.07006836 0.06469727 C20.72700223 0.07574446 24.38387707 0.09301826 28.04077148 0.11352539 C28.21981018 1.15239395 28.39884888 2.19126251 28.58331299 3.26161194 C30.2889579 13.15844593 31.99478967 23.05524769 33.70079422 32.95201969 C34.57739419 38.03733345 35.45393329 43.12265769 36.33032227 48.20800781 C41.66311746 79.16465123 41.66311746 79.16465123 47.04077148 110.11352539 C53.80938704 93.69732189 60.38991395 77.21473197 66.85327148 60.67602539 C67.42750351 59.20690201 67.42750351 59.20690201 68.01333618 57.70809937 C72.11650015 47.20616013 76.20463385 36.69847452 80.27514648 26.18383789 C80.93032433 24.4929958 81.585516 22.80215906 82.24072266 21.11132812 C83.46033545 17.96366638 84.67614858 14.8145736 85.88964844 11.66455078 C86.43080085 10.26599036 86.97205424 8.867469 87.51342773 7.46899414 C87.98014893 6.25880615 88.44687012 5.04861816 88.92773438 3.80175781 C90.04077148 1.11352539 90.04077148 1.11352539 91.04077148 0.11352539 C93.48907575 0.02508746 95.90897747 -0.00176213 98.35717773 0.01586914 C99.45375954 0.01799156 99.45375954 0.01799156 100.57249451 0.02015686 C102.91612781 0.02577131 105.25966688 0.03832617 107.60327148 0.05102539 C109.18855657 0.05603853 110.77384314 0.06060176 112.35913086 0.06469727 C116.25304758 0.07574542 120.14689354 0.09301967 124.04077148 0.11352539 C122.13430798 6.23090951 119.85610843 12.01127018 117.11889648 17.80102539 C116.74229385 18.60837128 116.36569122 19.41571716 115.97767639 20.24752808 C115.1715037 21.97465081 114.36318562 23.70077352 113.55288696 25.42596436 C111.39167517 30.02806987 109.24681449 34.63779887 107.09936523 39.24633789 C106.66685959 40.17334503 106.23435394 41.10035217 105.78874207 42.05545044 C101.92487983 50.34306628 98.12513884 58.65871311 94.35327148 66.98852539 C93.14508711 69.65525957 91.93672968 72.32191529 90.72827148 74.98852539 C90.4297377 75.64746796 90.13120392 76.30641052 89.82362366 76.98532104 C87.21268909 82.74411995 84.58180842 88.49368576 81.94493103 94.24064636 C80.23516418 97.967776 78.52983893 101.69678185 76.8359375 105.43115234 C76.17649714 106.88393683 75.5169121 108.33665565 74.85717773 109.78930664 C74.53552139 110.49759109 74.21386505 111.20587555 73.88246155 111.93562317 C71.81975705 116.45852758 69.68362418 120.9379796 67.50561523 125.40649414 C66.95993896 126.55585449 66.4142627 127.70521484 65.85205078 128.8894043 C64.87672496 130.94254523 63.87796706 132.98490739 62.84472656 135.00952148 C58.11791543 145.11924187 57.10240374 155.92466251 55.61950684 166.88143921 C54.9766685 171.61956291 54.29196006 176.35142304 53.60620117 181.08349609 C52.12315529 191.33282281 50.66117083 201.58506876 49.20336914 211.8380127 C48.50700261 216.73338701 47.80896299 221.62852275 47.11108398 226.52368164 C45.75271934 236.05340318 44.3962975 245.58339967 43.04077148 255.11352539 C32.81077148 255.11352539 22.58077148 255.11352539 12.04077148 255.11352539 C12.64604463 247.85024768 13.27591389 240.75413347 14.34765625 233.57226562 C14.47459869 232.7006076 14.60154114 231.82894958 14.73233032 230.93087769 C15.00469028 229.06307689 15.27863205 227.19550615 15.55404854 225.32815361 C15.99084146 222.36331195 16.42228252 219.39773449 16.85227966 216.43190002 C18.07432703 208.00799573 19.30397473 199.58521805 20.54150391 191.16357422 C21.30143576 185.98949394 22.05370533 180.81434561 22.80134392 175.63847542 C23.08587723 173.67942037 23.37330358 171.72078307 23.66378975 169.76260185 C24.07080042 167.01785704 24.46803194 164.27185033 24.86328125 161.52539062 C24.98326981 160.73287399 25.10325836 159.94035736 25.22688293 159.12382507 C26.58821389 149.49492979 26.29032964 140.58176147 24.14819336 131.10449219 C23.94646515 130.16906082 23.74473694 129.23362946 23.53689575 128.26985168 C22.87178606 125.19837948 22.19071062 122.13068653 21.50952148 119.06274414 C21.03440879 116.88285922 20.56034956 114.70274445 20.08728027 112.52241516 C18.8377172 106.77601568 17.57479184 101.03263667 16.30871582 95.28985596 C15.0532521 89.58618711 13.80884031 83.88011297 12.56420898 78.17407227 C12.07366947 75.92619388 11.58310965 73.67831992 11.0925293 71.43045044 C10.85143433 70.32559422 10.61033936 69.22073799 10.36193848 68.08240128 C9.63797301 64.76605492 8.91320065 61.44988582 8.18823242 58.13375854 C5.36709664 45.22569597 2.5478267 32.31720429 -0.20451355 19.39426613 C-0.5591139 17.73282216 -0.91570161 16.07180098 -1.27436829 14.41123009 C-1.75887218 12.16575737 -2.23611845 9.91887264 -2.71118164 7.67138672 C-2.97838013 6.41997391 -3.24557861 5.1685611 -3.52087402 3.87922668 C-3.66553101 2.96654526 -3.81018799 2.05386383 -3.95922852 1.11352539 C-2.95922852 0.11352539 -2.95922852 0.11352539 0 0 Z " fill="#FFFFFF" transform="translate(530.959228515625,494.886474609375)"/>
</svg>
